<svg id="visual" viewBox="0 0 1100 800" width="1100" height="800" xmlns="http://www.w3.org/2000/svg" xmlns:xlink="http://www.w3.org/1999/xlink" version="1.1"><rect x="0" y="0" width="1100" height="800" fill="#001220"></rect><defs><linearGradient id="grad1_0" x1="27.3%" y1="0%" x2="100%" y2="100%"><stop offset="22.5%" stop-color="#fbae3c" stop-opacity="1"></stop><stop offset="77.5%" stop-color="#fbae3c" stop-opacity="1"></stop></linearGradient></defs><defs><linearGradient id="grad1_1" x1="27.3%" y1="0%" x2="100%" y2="100%"><stop offset="22.5%" stop-color="#fbae3c" stop-opacity="1"></stop><stop offset="77.5%" stop-color="#e1685e" stop-opacity="1"></stop></linearGradient></defs><defs><linearGradient id="grad1_2" x1="27.3%" y1="0%" x2="100%" y2="100%"><stop offset="22.5%" stop-color="#96446e" stop-opacity="1"></stop><stop offset="77.5%" stop-color="#e1685e" stop-opacity="1"></stop></linearGradient></defs><defs><linearGradient id="grad1_3" x1="27.3%" y1="0%" x2="100%" y2="100%"><stop offset="22.5%" stop-color="#96446e" stop-opacity="1"></stop><stop offset="77.5%" stop-color="#3d3056" stop-opacity="1"></stop></linearGradient></defs><defs><linearGradient id="grad1_4" x1="27.3%" y1="0%" x2="100%" y2="100%"><stop offset="22.5%" stop-color="#001220" stop-opacity="1"></stop><stop offset="77.5%" stop-color="#3d3056" stop-opacity="1"></stop></linearGradient></defs><defs><linearGradient id="grad2_0" x1="0%" y1="0%" x2="72.7%" y2="100%"><stop offset="22.5%" stop-color="#fbae3c" stop-opacity="1"></stop><stop offset="77.5%" stop-color="#fbae3c" stop-opacity="1"></stop></linearGradient></defs><defs><linearGradient id="grad2_1" x1="0%" y1="0%" x2="72.7%" y2="100%"><stop offset="22.5%" stop-color="#e1685e" stop-opacity="1"></stop><stop offset="77.5%" stop-color="#fbae3c" stop-opacity="1"></stop></linearGradient></defs><defs><linearGradient id="grad2_2" x1="0%" y1="0%" x2="72.7%" y2="100%"><stop offset="22.5%" stop-color="#e1685e" stop-opacity="1"></stop><stop offset="77.5%" stop-color="#96446e" stop-opacity="1"></stop></linearGradient></defs><defs><linearGradient id="grad2_3" x1="0%" y1="0%" x2="72.7%" y2="100%"><stop offset="22.5%" stop-color="#3d3056" stop-opacity="1"></stop><stop offset="77.5%" stop-color="#96446e" stop-opacity="1"></stop></linearGradient></defs><defs><linearGradient id="grad2_4" x1="0%" y1="0%" x2="72.7%" y2="100%"><stop offset="22.5%" stop-color="#3d3056" stop-opacity="1"></stop><stop offset="77.5%" stop-color="#001220" stop-opacity="1"></stop></linearGradient></defs><g transform="translate(1100, 0)"><path d="M0 476.1C-52 474.3 -104 472.6 -146.5 450.8C-189 429 -221.9 387 -257.4 354.3C-293 321.7 -331 298.5 -366.5 266.3C-402 234.1 -434.9 193 -452.8 147.1C-470.6 101.2 -473.3 50.6 -476.1 0L0 0Z" fill="#18223c"></path><path d="M0 380.8C-41.6 379.5 -83.2 378.1 -117.2 360.6C-151.2 343.2 -177.6 309.6 -206 283.5C-234.4 257.4 -264.8 238.8 -293.2 213C-321.6 187.3 -347.9 154.4 -362.2 117.7C-376.5 81 -378.7 40.5 -380.8 0L0 0Z" fill="#683a67"></path><path d="M0 285.6C-31.2 284.6 -62.4 283.6 -87.9 270.5C-113.4 257.4 -133.2 232.2 -154.5 212.6C-175.8 193 -198.6 179.1 -219.9 159.8C-241.2 140.4 -260.9 115.8 -271.7 88.3C-282.4 60.7 -284 30.4 -285.6 0L0 0Z" fill="#c0526a"></path><path d="M0 190.4C-20.8 189.7 -41.6 189.1 -58.6 180.3C-75.6 171.6 -88.8 154.8 -103 141.7C-117.2 128.7 -132.4 119.4 -146.6 106.5C-160.8 93.6 -174 77.2 -181.1 58.8C-188.2 40.5 -189.3 20.2 -190.4 0L0 0Z" fill="#f6884d"></path><path d="M0 95.2C-10.4 94.9 -20.8 94.5 -29.3 90.2C-37.8 85.8 -44.4 77.4 -51.5 70.9C-58.6 64.3 -66.2 59.7 -73.3 53.3C-80.4 46.8 -87 38.6 -90.6 29.4C-94.1 20.2 -94.7 10.1 -95.2 0L0 0Z" fill="#fbae3c"></path></g><g transform="translate(0, 800)"><path d="M0 -476.1C45 -458.4 89.9 -440.7 139.7 -429.9C189.5 -419 244 -415 279.8 -385.1C315.6 -355.2 332.5 -299.4 348.7 -253.3C364.9 -207.3 380.2 -171 401.3 -130.4C422.4 -89.8 449.2 -44.9 476.1 0L0 0Z" fill="#18223c"></path><path d="M0 -380.8C36 -366.7 71.9 -352.6 111.7 -343.9C151.6 -335.2 195.2 -332 223.9 -308.1C252.5 -284.2 266 -239.5 278.9 -202.7C291.9 -165.8 304.2 -136.8 321.1 -104.3C338 -71.8 359.4 -35.9 380.8 0L0 0Z" fill="#683a67"></path><path d="M0 -285.6C27 -275 53.9 -264.4 83.8 -257.9C113.7 -251.4 146.4 -249 167.9 -231.1C189.4 -213.1 199.5 -179.6 209.2 -152C218.9 -124.4 228.1 -102.6 240.8 -78.2C253.5 -53.9 269.5 -26.9 285.6 0L0 0Z" fill="#c0526a"></path><path d="M0 -190.4C18 -183.4 36 -176.3 55.9 -172C75.8 -167.6 97.6 -166 111.9 -154.1C126.2 -142.1 133 -119.8 139.5 -101.3C145.9 -82.9 152.1 -68.4 160.5 -52.2C169 -35.9 179.7 -18 190.4 0L0 0Z" fill="#f6884d"></path><path d="M0 -95.2C9 -91.7 18 -88.1 27.9 -86C37.9 -83.8 48.8 -83 56 -77C63.1 -71 66.5 -59.9 69.7 -50.7C73 -41.5 76 -34.2 80.3 -26.1C84.5 -18 89.8 -9 95.2 0L0 0Z" fill="#fbae3c"></path></g></svg>