<svg id="visual" viewBox="0 0 900 400" width="900" height="400" xmlns="http://www.w3.org/2000/svg" xmlns:xlink="http://www.w3.org/1999/xlink" version="1.1"><path d="M0 84L129 105L257 54L386 90L514 100L643 63L771 90L900 86L900 0L771 0L643 0L514 0L386 0L257 0L129 0L0 0Z" fill="#001220"></path><path d="M0 45L129 78L257 77L386 65L514 88L643 72L771 63L900 88L900 0L771 0L643 0L514 0L386 0L257 0L129 0L0 0Z" fill="#1a2344"></path><path d="M0 83L129 43L257 78L386 43L514 41L643 73L771 38L900 41L900 0L771 0L643 0L514 0L386 0L257 0L129 0L0 0Z" fill="#4b2d60"></path><path d="M0 34L129 56L257 38L386 66L514 58L643 30L771 42L900 32L900 0L771 0L643 0L514 0L386 0L257 0L129 0L0 0Z" fill="#852e6a"></path><path d="M0 50L129 54L257 41L386 39L514 44L643 33L771 51L900 41L900 0L771 0L643 0L514 0L386 0L257 0L129 0L0 0Z" fill="#bc2f60"></path><path d="M0 32L129 37L257 34L386 36L514 18L643 20L771 23L900 35L900 0L771 0L643 0L514 0L386 0L257 0L129 0L0 0Z" fill="#e44644"></path><path d="M0 9L129 13L257 23L386 9L514 10L643 13L771 16L900 6L900 0L771 0L643 0L514 0L386 0L257 0L129 0L0 0Z" fill="#f5730a"></path></svg>